<svg width="102.209px" height="102.209px" viewBox="-15.33 0 102.209 102.209" xmlns="http://www.w3.org/2000/svg">
  <g id="Art_Direction" transform="translate(-364.232 -248.894)">
    <circle id="Ellipse_152" data-name="Ellipse 152" cx="1.703" cy="1.703" r="1.703" transform="translate(394.784 254.008)"/>
    <circle id="Ellipse_153" data-name="Ellipse 153" cx="1.703" cy="1.703" r="1.703" transform="translate(401.598 254.008)"/>
    <path id="Path_163" data-name="Path 163" d="M434.069,340.883a1.7,1.7,0,0,0-1.7,1.7,5.11,5.11,0,0,1-10.22,0,1.7,1.7,0,1,0-3.406,0,5.059,5.059,0,0,1-.444,2.063l-6.2-65.09h4.939a1.7,1.7,0,1,0,0-3.407h-5.11v-15.33a11.924,11.924,0,0,0-23.848,0v15.33h-5.11a1.7,1.7,0,0,0,0,3.407h4.939l-6.2,65.09a5.063,5.063,0,0,1-.444-2.063,1.7,1.7,0,1,0-3.406,0,5.11,5.11,0,0,1-10.22,0,1.7,1.7,0,1,0-3.406,0,8.492,8.492,0,0,0,15.331,5.059,8.442,8.442,0,0,0,13.628,0,8.442,8.442,0,0,0,13.628,0,8.442,8.442,0,0,0,13.628,0,8.492,8.492,0,0,0,15.331-5.059A1.711,1.711,0,0,0,434.069,340.883Zm-27.362-13.1a1.666,1.666,0,0,0,.107-.529,1.7,1.7,0,0,0-3.406,0,1.686,1.686,0,0,0,.913,1.484l-1.555.622a1.65,1.65,0,0,0-2.722,1.089l-7.075,2.83a1.686,1.686,0,0,0-1.485-.915,1.7,1.7,0,0,0-1.7,1.7,1.643,1.643,0,0,0,.091.45l-3.925,1.57.1-1.079a1.526,1.526,0,0,0,.156-1.636l.229-2.41a1.68,1.68,0,0,0,1.642,1.4,1.7,1.7,0,1,0-1.547-2.4l.414-4.351.061.154.719-.287a1.6,1.6,0,0,0,.353.071,1.676,1.676,0,0,0,1.385-.766l3.847-1.539a1.674,1.674,0,0,0-.121.6,1.7,1.7,0,1,0,2.431-1.526l1.555-.622a1.668,1.668,0,0,0,2.8-1.119l7.025-2.81a1.681,1.681,0,0,0,3.12-1.248l2-.8.3,3.113a1.647,1.647,0,0,0-.487-.1,1.7,1.7,0,0,0,0,3.407,1.663,1.663,0,0,0,.782-.214l.317,3.326-.858.343a1.609,1.609,0,0,0-.241-.049,1.675,1.675,0,0,0-1.323.674Zm-17.786-22.93a1.649,1.649,0,0,0,.259-2.72l.444-4.666L393.308,296a1.683,1.683,0,0,0-.121.6,1.7,1.7,0,1,0,2.433-1.524l1.555-.622a1.667,1.667,0,0,0,2.8-1.119L407,290.518a1.675,1.675,0,0,0,2.756.419l.774,8.131-3.836,1.534a1.673,1.673,0,0,0,.121-.6,1.7,1.7,0,1,0-2.431,1.525l-1.555.622a1.668,1.668,0,0,0-2.8,1.118L393,306.076a1.693,1.693,0,0,0-3.222.737,1.671,1.671,0,0,0,.1.51l-1.244.5Zm-.646,6.778,22.59-9.034.914,9.593-24.49,9.8Zm11.619-54.218a1.7,1.7,0,0,0-1.7,1.7h-3.407a1.7,1.7,0,0,0-1.7-1.7,1.667,1.667,0,0,0-1.037.386,8.535,8.535,0,0,1,6.188-5.292,1.674,1.674,0,0,0,3.335-.055,8.526,8.526,0,0,1,6.485,5.667,1.672,1.672,0,0,0-1.345-.707,1.7,1.7,0,0,0-1.7,1.7H401.6A1.7,1.7,0,0,0,399.894,257.414Zm-8.411,5.11h17.034v13.627H401.7v-8.517a1.7,1.7,0,0,0-3.406,0v8.517h-6.814Zm17.188,17.035.607,6.38-19.291,7.717,1.342-14.1h17.342Zm-.154,63.027a1.7,1.7,0,1,0-3.406,0,5.11,5.11,0,0,1-10.22,0,1.7,1.7,0,1,0-3.406,0,5.115,5.115,0,0,1-5.11,5.11,5.06,5.06,0,0,1-1.508-.253l.718-7.542,27.776-11.112,1.777,18.654a5.061,5.061,0,0,1-1.508.253A5.117,5.117,0,0,1,408.517,342.586Z"/>
    <circle id="Ellipse_154" data-name="Ellipse 154" cx="1.703" cy="1.703" r="1.703" transform="translate(403.407 291.483)"/>
    <circle id="Ellipse_155" data-name="Ellipse 155" cx="1.703" cy="1.703" r="1.703" transform="translate(400.001 294.89)"/>
    <circle id="Ellipse_156" data-name="Ellipse 156" cx="1.703" cy="1.703" r="1.703" transform="translate(406.814 294.89)"/>
    <circle id="Ellipse_157" data-name="Ellipse 157" cx="1.703" cy="1.703" r="1.703" transform="translate(389.78 298.297)"/>
    <circle id="Ellipse_158" data-name="Ellipse 158" cx="1.703" cy="1.703" r="1.703" transform="translate(396.594 298.297)"/>
    <circle id="Ellipse_159" data-name="Ellipse 159" cx="1.703" cy="1.703" r="1.703" transform="translate(393.187 301.704)"/>
    <circle id="Ellipse_160" data-name="Ellipse 160" cx="1.703" cy="1.703" r="1.703" transform="translate(403.407 318.738)"/>
    <circle id="Ellipse_161" data-name="Ellipse 161" cx="1.703" cy="1.703" r="1.703" transform="translate(400.001 322.145)"/>
    <circle id="Ellipse_162" data-name="Ellipse 162" cx="1.703" cy="1.703" r="1.703" transform="translate(406.814 322.145)"/>
    <circle id="Ellipse_163" data-name="Ellipse 163" cx="1.703" cy="1.703" r="1.703" transform="translate(389.78 325.552)"/>
    <circle id="Ellipse_164" data-name="Ellipse 164" cx="1.703" cy="1.703" r="1.703" transform="translate(396.594 325.552)"/>
    <circle id="Ellipse_165" data-name="Ellipse 165" cx="1.703" cy="1.703" r="1.703" transform="translate(393.187 328.959)"/>
    <path id="Path_164" data-name="Path 164" d="M417.034,265.931h13.628a1.7,1.7,0,0,0,0-3.406H417.034a1.7,1.7,0,0,0,0,3.406Z"/>
    <path id="Path_165" data-name="Path 165" d="M417.034,259.384a1.66,1.66,0,0,0,.785-.193l13.627-7.08a1.7,1.7,0,0,0-1.571-3.021l-13.627,7.08a1.7,1.7,0,0,0,.786,3.214Z"/>
    <path id="Path_166" data-name="Path 166" d="M417.816,269.315a1.7,1.7,0,1,0-1.564,3.028l13.628,7.027a1.7,1.7,0,1,0,1.564-3.028Z"/>
    <path id="Path_167" data-name="Path 167" d="M369.338,265.931h13.628a1.7,1.7,0,1,0,0-3.406H369.338a1.7,1.7,0,0,0,0,3.406Z"/>
    <path id="Path_168" data-name="Path 168" d="M382.181,269.265l-13.627,7.08a1.7,1.7,0,0,0,.785,3.214,1.66,1.66,0,0,0,.785-.193l13.628-7.08a1.7,1.7,0,0,0-1.571-3.021Z"/>
    <path id="Path_169" data-name="Path 169" d="M368.556,252.114l13.628,7.027a1.7,1.7,0,1,0,1.564-3.028l-13.628-7.027a1.7,1.7,0,0,0-1.564,3.028Z"/>
  </g>
</svg>
